<?xml version="1.0" encoding="UTF-8"?><svg version="1.1" viewBox="0 0 24 20" xmlns="http://www.w3.org/2000/svg"><title>icon-code</title><desc>Created with Sketch.</desc><g transform="translate(-77 -562)" fill="none" fill-rule="evenodd"><g transform="translate(71 554)"><rect width="36" height="36" fill="#D8D8D8" opacity="0"/><g transform="translate(6 7)" fill="#717171"><g transform="translate(0 4.7143)" fill-rule="nonzero"><path d="m20.553 6.2857-3.1917 2.7784c-0.41425 0.3606-0.45774 0.98873-0.097139 1.403 0.030102 0.03458 0.062559 0.067037 0.097139 0.097139l0.15448 0.13447c0.40541 0.3529 1.0089 0.3529 1.4143 0l4.1363-3.6006c0.44867-0.39056 0.49577-1.0709 0.10521-1.5196-0.032603-0.037453-0.067757-0.072607-0.10521-0.10521l-4.1363-3.6006c-0.40541-0.3529-1.0089-0.3529-1.4143 0l-0.15448 0.13447c-0.41425 0.3606-0.45774 0.98873-0.097139 1.403 0.030102 0.03458 0.062559 0.067037 0.097139 0.097139l3.1917 2.7784z"/><path d="m0.93325 7.0981 4.1363 3.6006c0.40541 0.3529 1.0089 0.3529 1.4143 0l0.15448-0.13447c0.41425-0.3606 0.45774-0.98873 0.097139-1.403-0.030102-0.03458-0.062559-0.067037-0.097139-0.097139l-3.1917-2.7784 3.1917-2.7784c0.41425-0.3606 0.45774-0.98873 0.097139-1.403-0.030102-0.03458-0.062559-0.067037-0.097139-0.097139l-0.15448-0.13447c-0.40541-0.3529-1.0089-0.3529-1.4143 0l-4.1363 3.6006c-0.44867 0.39056-0.49577 1.0709-0.10521 1.5196 0.032603 0.037453 0.067757 0.072607 0.10521 0.10521z"/></g><rect transform="translate(12.236 11.086) rotate(-70) translate(-12.236 -11.086)" x="1.8903" y="10.301" width="20.691" height="1.5714" rx=".78571"/></g></g></g></svg>
